<svg width="100%" height="100%" id="svg" viewBox="0 0 1440 700" xmlns="http://www.w3.org/2000/svg" class="transition duration-300 ease-in-out delay-150"><defs><linearGradient id="gradient" x1="0%" y1="50%" x2="100%" y2="50%"><stop offset="5%" stop-color="#9900ef66"></stop><stop offset="95%" stop-color="#32ded466"></stop></linearGradient></defs><path d="M 0,700 C 0,700 0,175 0,175 C 57.36310546204052,145.79903813122638 114.72621092408104,116.59807626245276 180,119 C 245.27378907591896,121.40192373754724 318.45826176571626,155.40673308141533 403,184 C 487.54173823428374,212.59326691858467 583.4407420130539,235.77499141188596 653,218 C 722.5592579869461,200.22500858811404 765.778770182068,141.49330127104088 813,145 C 860.221229817932,148.50669872895912 911.444177258674,214.25180350395053 994,231 C 1076.555822741326,247.74819649604947 1190.4445207832362,215.499484713157 1270,198 C 1349.5554792167638,180.500515286843 1394.777739608382,177.7502576434215 1440,175 C 1440,175 1440,700 1440,700 Z" stroke="none" stroke-width="0" fill="url(#gradient)" class="transition-all duration-300 ease-in-out delay-150 path-0"></path><defs><linearGradient id="gradient" x1="0%" y1="50%" x2="100%" y2="50%"><stop offset="5%" stop-color="#9900ef88"></stop><stop offset="95%" stop-color="#32ded488"></stop></linearGradient></defs><path d="M 0,700 C 0,700 0,350 0,350 C 56.42116111301958,375.42081758845757 112.84232222603916,400.84163517691513 173,392 C 233.15767777396084,383.15836482308487 297.0518722088629,340.054276880797 374,333 C 450.9481277911371,325.945723119203 540.9501889385092,354.94125729989696 612,357 C 683.0498110614908,359.05874270010304 735.1473720371005,334.18069391961524 794,328 C 852.8526279628995,321.81930608038476 918.4603229130885,334.33596702164203 992,347 C 1065.5396770869115,359.66403297835797 1147.011336310546,372.4754379938165 1223,373 C 1298.988663689454,373.5245620061835 1369.494331844727,361.76228100309174 1440,350 C 1440,350 1440,700 1440,700 Z" stroke="none" stroke-width="0" fill="url(#gradient)" class="transition-all duration-300 ease-in-out delay-150 path-1"></path><defs><linearGradient id="gradient" x1="0%" y1="50%" x2="100%" y2="50%"><stop offset="5%" stop-color="#9900efff"></stop><stop offset="95%" stop-color="#32ded4ff"></stop></linearGradient></defs><path d="M 0,700 C 0,700 0,525 0,525 C 70.90965304019238,487.77499141188594 141.81930608038476,450.5499828237719 204,459 C 266.18069391961524,467.4500171762281 319.63242871865333,521.5750601167985 392,536 C 464.36757128134667,550.4249398832015 555.6509790450018,525.1497767090347 623,528 C 690.3490209549982,530.8502232909653 733.7636551013397,561.8258330470629 806,550 C 878.2363448986603,538.1741669529371 979.2944005496395,483.54689110271374 1060,470 C 1140.7055994503605,456.45310889728626 1201.058742700103,483.98660254208176 1261,500 C 1320.941257299897,516.0133974579182 1380.4706286499486,520.5066987289591 1440,525 C 1440,525 1440,700 1440,700 Z" stroke="none" stroke-width="0" fill="url(#gradient)" class="transition-all duration-300 ease-in-out delay-150 path-2"></path></svg>